<svg width="177" height="136" viewBox="0 0 177 136" fill="none" xmlns="http://www.w3.org/2000/svg">
<rect x="1" width="105" height="18" rx="9" fill="#C9D6E9"/>
<path d="M24.2363 14L21.3594 6.41797H21.3125C21.3281 6.57812 21.3418 6.77344 21.3535 7.00391C21.3652 7.23438 21.375 7.48633 21.3828 7.75977C21.3906 8.0293 21.3945 8.30469 21.3945 8.58594V14H20.4688V5.43359H21.9453L24.6582 12.5586H24.6992L27.4531 5.43359H28.918V14H27.9336V8.51562C27.9336 8.26172 27.9375 8.00781 27.9453 7.75391C27.9531 7.49609 27.9629 7.25391 27.9746 7.02734C27.9863 6.79688 27.998 6.59766 28.0098 6.42969H27.9629L25.0508 14H24.2363ZM33.5176 7.47266C34.2832 7.47266 34.8516 7.64453 35.2227 7.98828C35.5938 8.33203 35.7793 8.88086 35.7793 9.63477V14H35.0703L34.8828 13.0508H34.8359C34.6562 13.2852 34.4688 13.4824 34.2734 13.6426C34.0781 13.7988 33.8516 13.918 33.5938 14C33.3398 14.0781 33.0273 14.1172 32.6562 14.1172C32.2656 14.1172 31.918 14.0488 31.6133 13.9121C31.3125 13.7754 31.0742 13.5684 30.8984 13.291C30.7266 13.0137 30.6406 12.6621 30.6406 12.2363C30.6406 11.5957 30.8945 11.1035 31.4023 10.7598C31.9102 10.416 32.6836 10.2285 33.7227 10.1973L34.8301 10.1504V9.75781C34.8301 9.20312 34.7109 8.81445 34.4727 8.5918C34.2344 8.36914 33.8984 8.25781 33.4648 8.25781C33.1289 8.25781 32.8086 8.30664 32.5039 8.4043C32.1992 8.50195 31.9102 8.61719 31.6367 8.75L31.3379 8.01172C31.627 7.86328 31.959 7.73633 32.334 7.63086C32.709 7.52539 33.1035 7.47266 33.5176 7.47266ZM34.8184 10.8359L33.8398 10.877C33.0391 10.9082 32.4746 11.0391 32.1465 11.2695C31.8184 11.5 31.6543 11.8262 31.6543 12.248C31.6543 12.6152 31.7656 12.8867 31.9883 13.0625C32.2109 13.2383 32.5059 13.3262 32.873 13.3262C33.4434 13.3262 33.9102 13.168 34.2734 12.8516C34.6367 12.5352 34.8184 12.0605 34.8184 11.4277V10.8359ZM40.7012 7.46094C40.8301 7.46094 40.9648 7.46875 41.1055 7.48438C41.2461 7.49609 41.3711 7.51367 41.4805 7.53711L41.3574 8.43945C41.252 8.41211 41.1348 8.39062 41.0059 8.375C40.877 8.35938 40.7559 8.35156 40.6426 8.35156C40.3848 8.35156 40.1406 8.4043 39.9102 8.50977C39.6836 8.61133 39.4844 8.75977 39.3125 8.95508C39.1406 9.14648 39.0059 9.37891 38.9082 9.65234C38.8105 9.92188 38.7617 10.2227 38.7617 10.5547V14H37.7832V7.57812H38.5918L38.6973 8.76172H38.7383C38.8711 8.52344 39.0312 8.30664 39.2188 8.11133C39.4062 7.91211 39.623 7.75391 39.8691 7.63672C40.1191 7.51953 40.3965 7.46094 40.7012 7.46094ZM43.6602 4.88281V9.61719C43.6602 9.77344 43.6543 9.96484 43.6426 10.1914C43.6309 10.4141 43.6211 10.6113 43.6133 10.7832H43.6543C43.7363 10.6816 43.8555 10.5312 44.0117 10.332C44.1719 10.1328 44.3066 9.97266 44.416 9.85156L46.5488 7.57812H47.6914L45.1074 10.3203L47.8789 14H46.707L44.4395 10.959L43.6602 11.6738V14H42.6934V4.88281H43.6602ZM51.4707 7.46094C52.0176 7.46094 52.4863 7.58203 52.877 7.82422C53.2676 8.06641 53.5664 8.40625 53.7734 8.84375C53.9805 9.27734 54.084 9.78516 54.084 10.3672V10.9707H49.6484C49.6602 11.7246 49.8477 12.2988 50.2109 12.6934C50.5742 13.0879 51.0859 13.2852 51.7461 13.2852C52.1523 13.2852 52.5117 13.248 52.8242 13.1738C53.1367 13.0996 53.4609 12.9902 53.7969 12.8457V13.7012C53.4727 13.8457 53.1504 13.9512 52.8301 14.0176C52.5137 14.084 52.1387 14.1172 51.7051 14.1172C51.0879 14.1172 50.5488 13.9922 50.0879 13.7422C49.6309 13.4883 49.2754 13.1172 49.0215 12.6289C48.7676 12.1406 48.6406 11.543 48.6406 10.8359C48.6406 10.1445 48.7559 9.54688 48.9863 9.04297C49.2207 8.53516 49.5488 8.14453 49.9707 7.87109C50.3965 7.59766 50.8965 7.46094 51.4707 7.46094ZM51.459 8.25781C50.9395 8.25781 50.5254 8.42773 50.2168 8.76758C49.9082 9.10742 49.7246 9.58203 49.666 10.1914H53.0645C53.0605 9.80859 53 9.47266 52.8828 9.18359C52.7695 8.89062 52.5957 8.66406 52.3613 8.50391C52.127 8.33984 51.8262 8.25781 51.459 8.25781ZM57.8105 13.3203C57.9707 13.3203 58.1348 13.3066 58.3027 13.2793C58.4707 13.252 58.6074 13.2188 58.7129 13.1797V13.9355C58.5996 13.9863 58.4414 14.0293 58.2383 14.0645C58.0391 14.0996 57.8438 14.1172 57.6523 14.1172C57.3125 14.1172 57.0039 14.0586 56.7266 13.9414C56.4492 13.8203 56.2266 13.6172 56.0586 13.332C55.8945 13.0469 55.8125 12.6523 55.8125 12.1484V8.33984H54.8984V7.86523L55.8184 7.48438L56.2051 6.08984H56.791V7.57812H58.6719V8.33984H56.791V12.1191C56.791 12.5215 56.8828 12.8223 57.0664 13.0215C57.2539 13.2207 57.502 13.3203 57.8105 13.3203ZM68.1113 11.7207C68.1113 12.2285 67.9844 12.6621 67.7305 13.0215C67.4805 13.377 67.1289 13.6484 66.6758 13.8359C66.2227 14.0234 65.6895 14.1172 65.0762 14.1172C64.752 14.1172 64.4453 14.1016 64.1562 14.0703C63.8672 14.0391 63.6016 13.9941 63.3594 13.9355C63.1172 13.877 62.9043 13.8047 62.7207 13.7188V12.7637C63.0137 12.8848 63.3711 12.998 63.793 13.1035C64.2148 13.2051 64.6562 13.2559 65.1172 13.2559C65.5469 13.2559 65.9102 13.1992 66.207 13.0859C66.5039 12.9688 66.7285 12.8027 66.8809 12.5879C67.0371 12.3691 67.1152 12.1074 67.1152 11.8027C67.1152 11.5098 67.0508 11.2656 66.9219 11.0703C66.793 10.8711 66.5781 10.6914 66.2773 10.5312C65.9805 10.3672 65.5742 10.1934 65.0586 10.0098C64.6953 9.88086 64.375 9.74023 64.0977 9.58789C63.8203 9.43164 63.5879 9.25586 63.4004 9.06055C63.2129 8.86523 63.0703 8.63867 62.9727 8.38086C62.8789 8.12305 62.832 7.82812 62.832 7.49609C62.832 7.03906 62.9473 6.64844 63.1777 6.32422C63.4121 5.99609 63.7344 5.74609 64.1445 5.57422C64.5586 5.39844 65.0332 5.31055 65.5684 5.31055C66.0254 5.31055 66.4473 5.35352 66.834 5.43945C67.2246 5.52539 67.582 5.64062 67.9062 5.78516L67.5957 6.64062C67.2871 6.51172 66.959 6.4043 66.6113 6.31836C66.2676 6.23242 65.9121 6.18945 65.5449 6.18945C65.1777 6.18945 64.8672 6.24414 64.6133 6.35352C64.3633 6.45898 64.1719 6.60938 64.0391 6.80469C63.9062 7 63.8398 7.23242 63.8398 7.50195C63.8398 7.80273 63.9023 8.05273 64.0273 8.25195C64.1562 8.45117 64.3594 8.62891 64.6367 8.78516C64.918 8.9375 65.2891 9.09766 65.75 9.26562C66.2539 9.44922 66.6816 9.64453 67.0332 9.85156C67.3848 10.0547 67.6523 10.3047 67.8359 10.6016C68.0195 10.8945 68.1113 11.2676 68.1113 11.7207ZM71.791 13.3203C71.9512 13.3203 72.1152 13.3066 72.2832 13.2793C72.4512 13.252 72.5879 13.2188 72.6934 13.1797V13.9355C72.5801 13.9863 72.4219 14.0293 72.2188 14.0645C72.0195 14.0996 71.8242 14.1172 71.6328 14.1172C71.293 14.1172 70.9844 14.0586 70.707 13.9414C70.4297 13.8203 70.207 13.6172 70.0391 13.332C69.875 13.0469 69.793 12.6523 69.793 12.1484V8.33984H68.8789V7.86523L69.7988 7.48438L70.1855 6.08984H70.7715V7.57812H72.6523V8.33984H70.7715V12.1191C70.7715 12.5215 70.8633 12.8223 71.0469 13.0215C71.2344 13.2207 71.4824 13.3203 71.791 13.3203ZM76.3965 7.47266C77.1621 7.47266 77.7305 7.64453 78.1016 7.98828C78.4727 8.33203 78.6582 8.88086 78.6582 9.63477V14H77.9492L77.7617 13.0508H77.7148C77.5352 13.2852 77.3477 13.4824 77.1523 13.6426C76.957 13.7988 76.7305 13.918 76.4727 14C76.2188 14.0781 75.9062 14.1172 75.5352 14.1172C75.1445 14.1172 74.7969 14.0488 74.4922 13.9121C74.1914 13.7754 73.9531 13.5684 73.7773 13.291C73.6055 13.0137 73.5195 12.6621 73.5195 12.2363C73.5195 11.5957 73.7734 11.1035 74.2812 10.7598C74.7891 10.416 75.5625 10.2285 76.6016 10.1973L77.709 10.1504V9.75781C77.709 9.20312 77.5898 8.81445 77.3516 8.5918C77.1133 8.36914 76.7773 8.25781 76.3438 8.25781C76.0078 8.25781 75.6875 8.30664 75.3828 8.4043C75.0781 8.50195 74.7891 8.61719 74.5156 8.75L74.2168 8.01172C74.5059 7.86328 74.8379 7.73633 75.2129 7.63086C75.5879 7.52539 75.9824 7.47266 76.3965 7.47266ZM77.6973 10.8359L76.7188 10.877C75.918 10.9082 75.3535 11.0391 75.0254 11.2695C74.6973 11.5 74.5332 11.8262 74.5332 12.248C74.5332 12.6152 74.6445 12.8867 74.8672 13.0625C75.0898 13.2383 75.3848 13.3262 75.752 13.3262C76.3223 13.3262 76.7891 13.168 77.1523 12.8516C77.5156 12.5352 77.6973 12.0605 77.6973 11.4277V10.8359ZM82.7363 13.3203C82.8965 13.3203 83.0605 13.3066 83.2285 13.2793C83.3965 13.252 83.5332 13.2188 83.6387 13.1797V13.9355C83.5254 13.9863 83.3672 14.0293 83.1641 14.0645C82.9648 14.0996 82.7695 14.1172 82.5781 14.1172C82.2383 14.1172 81.9297 14.0586 81.6523 13.9414C81.375 13.8203 81.1523 13.6172 80.9844 13.332C80.8203 13.0469 80.7383 12.6523 80.7383 12.1484V8.33984H79.8242V7.86523L80.7441 7.48438L81.1309 6.08984H81.7168V7.57812H83.5977V8.33984H81.7168V12.1191C81.7168 12.5215 81.8086 12.8223 81.9922 13.0215C82.1797 13.2207 82.4277 13.3203 82.7363 13.3203ZM85.9121 7.57812V14H84.9395V7.57812H85.9121ZM85.4375 5.17578C85.5977 5.17578 85.7344 5.22852 85.8477 5.33398C85.9648 5.43555 86.0234 5.5957 86.0234 5.81445C86.0234 6.0293 85.9648 6.18945 85.8477 6.29492C85.7344 6.40039 85.5977 6.45312 85.4375 6.45312C85.2695 6.45312 85.1289 6.40039 85.0156 6.29492C84.9062 6.18945 84.8516 6.0293 84.8516 5.81445C84.8516 5.5957 84.9062 5.43555 85.0156 5.33398C85.1289 5.22852 85.2695 5.17578 85.4375 5.17578ZM90.5469 14.1172C89.9688 14.1172 89.459 13.998 89.0176 13.7598C88.5762 13.5215 88.2324 13.1582 87.9863 12.6699C87.7402 12.1816 87.6172 11.5664 87.6172 10.8242C87.6172 10.0469 87.7461 9.41211 88.0039 8.91992C88.2656 8.42383 88.625 8.05664 89.082 7.81836C89.5391 7.58008 90.0586 7.46094 90.6406 7.46094C90.9609 7.46094 91.2695 7.49414 91.5664 7.56055C91.8672 7.62305 92.1133 7.70312 92.3047 7.80078L92.0117 8.61523C91.8164 8.53711 91.5898 8.4668 91.332 8.4043C91.0781 8.3418 90.8398 8.31055 90.6172 8.31055C90.1719 8.31055 89.8008 8.40625 89.5039 8.59766C89.2109 8.78906 88.9902 9.07031 88.8418 9.44141C88.6973 9.8125 88.625 10.2695 88.625 10.8125C88.625 11.332 88.6953 11.7754 88.8359 12.1426C88.9805 12.5098 89.1934 12.791 89.4746 12.9863C89.7598 13.1777 90.1152 13.2734 90.541 13.2734C90.8809 13.2734 91.1875 13.2383 91.4609 13.168C91.7344 13.0938 91.9824 13.0078 92.2051 12.9102V13.7773C91.9902 13.8867 91.75 13.9707 91.4844 14.0293C91.2227 14.0879 90.9102 14.1172 90.5469 14.1172Z" fill="#4C6487"/>
<circle cx="11.5" cy="9.5" r="2.5" fill="#4C6487"/>
<path d="M1 92.7022C12.6249 94.1808 16 90.0313 17.3636 82.6864C25.5455 68.6643 47.3636 67.3289 55.5455 74.0061C69.1818 91.3668 75.3182 94.7054 84.1818 76.0092C97.9065 57.028 101.899 56.6137 108.727 65.9934C118.086 72.1312 120.245 74.2713 121.682 82.0187C123.727 86.025 128.309 84.7081 129.864 78.6801C146 53.9993 154 52 169 65.9935" stroke="#445670" stroke-width="2" stroke-linecap="round"/>
<circle cx="118.5" cy="73.5" r="4.85" fill="white" stroke="#597193" stroke-width="1.3"/>
<rect x="125" y="121" width="26" height="15" rx="7.5" fill="#C9D6E9"/>
<path d="M11.5518 132.88C11.389 132.88 11.2458 132.868 11.1221 132.846C10.9984 132.823 10.8926 132.792 10.8047 132.753V132.045C10.9089 132.077 11.0212 132.102 11.1416 132.118C11.262 132.138 11.3923 132.147 11.5322 132.147C11.7145 132.147 11.8822 132.112 12.0352 132.04C12.1882 131.968 12.3102 131.846 12.4014 131.674C12.4925 131.501 12.5381 131.264 12.5381 130.961V123.861H13.373V130.897C13.373 131.343 13.2982 131.713 13.1484 132.006C13.002 132.299 12.792 132.517 12.5186 132.66C12.2484 132.807 11.9261 132.88 11.5518 132.88ZM17.2475 125.561C17.8855 125.561 18.3591 125.704 18.6684 125.99C18.9776 126.277 19.1322 126.734 19.1322 127.362V131H18.5414L18.3852 130.209H18.3461C18.1964 130.404 18.0401 130.569 17.8773 130.702C17.7146 130.832 17.5258 130.932 17.3109 131C17.0993 131.065 16.8389 131.098 16.5297 131.098C16.2042 131.098 15.9145 131.041 15.6605 130.927C15.4099 130.813 15.2113 130.64 15.0648 130.409C14.9216 130.178 14.85 129.885 14.85 129.53C14.85 128.996 15.0616 128.586 15.4848 128.3C15.9079 128.013 16.5525 127.857 17.4184 127.831L18.3412 127.792V127.465C18.3412 127.003 18.2419 126.679 18.0434 126.493C17.8448 126.308 17.5648 126.215 17.2035 126.215C16.9236 126.215 16.6566 126.256 16.4027 126.337C16.1488 126.418 15.9079 126.514 15.6801 126.625L15.4311 126.01C15.6719 125.886 15.9486 125.78 16.2611 125.692C16.5736 125.604 16.9024 125.561 17.2475 125.561ZM18.3314 128.363L17.516 128.397C16.8487 128.424 16.3783 128.533 16.1049 128.725C15.8314 128.917 15.6947 129.188 15.6947 129.54C15.6947 129.846 15.7875 130.072 15.973 130.219C16.1586 130.365 16.4044 130.438 16.7104 130.438C17.1856 130.438 17.5746 130.307 17.8773 130.043C18.1801 129.779 18.3314 129.384 18.3314 128.856V128.363ZM23.4363 125.551C24.0711 125.551 24.5512 125.707 24.8768 126.02C25.2023 126.329 25.365 126.827 25.365 127.514V131H24.5643V127.567C24.5643 127.121 24.4617 126.788 24.2566 126.566C24.0548 126.345 23.7439 126.234 23.324 126.234C22.7316 126.234 22.3149 126.402 22.074 126.737C21.8331 127.073 21.7127 127.559 21.7127 128.197V131H20.9021V125.648H21.5564L21.6785 126.42H21.7225C21.8364 126.231 21.9813 126.073 22.157 125.946C22.3328 125.816 22.5298 125.718 22.7479 125.653C22.966 125.585 23.1954 125.551 23.4363 125.551ZM36.1801 131H35.35V123.861H39.3246V124.594H36.1801V127.211H39.1342V127.938H36.1801V131ZM42.5545 125.551C43.0102 125.551 43.4008 125.652 43.7264 125.854C44.0519 126.055 44.3009 126.339 44.4734 126.703C44.646 127.064 44.7322 127.488 44.7322 127.973V128.476H41.0359C41.0457 129.104 41.202 129.582 41.5047 129.911C41.8074 130.24 42.2339 130.404 42.784 130.404C43.1225 130.404 43.422 130.373 43.6824 130.312C43.9428 130.25 44.213 130.159 44.493 130.038V130.751C44.2228 130.871 43.9542 130.959 43.6873 131.015C43.4236 131.07 43.1111 131.098 42.7498 131.098C42.2355 131.098 41.7863 130.993 41.4021 130.785C41.0213 130.574 40.7251 130.264 40.5135 129.857C40.3019 129.451 40.1961 128.952 40.1961 128.363C40.1961 127.787 40.2921 127.289 40.4842 126.869C40.6795 126.446 40.9529 126.12 41.3045 125.893C41.6593 125.665 42.076 125.551 42.5545 125.551ZM42.5447 126.215C42.1118 126.215 41.7667 126.356 41.5096 126.64C41.2524 126.923 41.0994 127.318 41.0506 127.826H43.8826C43.8794 127.507 43.8289 127.227 43.7313 126.986C43.6368 126.742 43.492 126.553 43.2967 126.42C43.1014 126.283 42.8507 126.215 42.5447 126.215ZM47.0197 123.402V125.302C47.0197 125.52 47.0132 125.731 47.0002 125.937C46.9904 126.142 46.9823 126.301 46.9758 126.415H47.0197C47.1662 126.174 47.3778 125.971 47.6545 125.805C47.9312 125.639 48.2844 125.556 48.7141 125.556C49.3846 125.556 49.9185 125.788 50.3156 126.254C50.716 126.716 50.9162 127.405 50.9162 128.319C50.9162 128.922 50.8251 129.429 50.6428 129.843C50.4605 130.256 50.2033 130.569 49.8713 130.78C49.5393 130.992 49.147 131.098 48.6945 131.098C48.2714 131.098 47.923 131.02 47.6496 130.863C47.3794 130.704 47.1711 130.51 47.0246 130.282H46.9611L46.7951 131H46.2092V123.402H47.0197ZM48.5822 126.234C48.1949 126.234 47.8872 126.311 47.6594 126.464C47.4315 126.614 47.2671 126.841 47.1662 127.147C47.0686 127.45 47.0197 127.834 47.0197 128.3V128.344C47.0197 129.018 47.132 129.534 47.3566 129.892C47.5812 130.246 47.9898 130.424 48.5822 130.424C49.0803 130.424 49.453 130.242 49.7004 129.877C49.951 129.512 50.0764 128.992 50.0764 128.314C50.0764 127.624 49.9527 127.105 49.7053 126.757C49.4611 126.409 49.0868 126.234 48.5822 126.234ZM61.0893 131L58.6918 124.682H58.6527C58.6658 124.815 58.6771 124.978 58.6869 125.17C58.6967 125.362 58.7048 125.572 58.7113 125.8C58.7178 126.024 58.7211 126.254 58.7211 126.488V131H57.9496V123.861H59.1801L61.4408 129.799H61.475L63.7699 123.861H64.9906V131H64.1703V126.43C64.1703 126.218 64.1736 126.007 64.1801 125.795C64.1866 125.58 64.1947 125.378 64.2045 125.189C64.2143 124.997 64.224 124.831 64.2338 124.691H64.1947L61.768 131H61.0893ZM68.9236 125.561C69.5617 125.561 70.0353 125.704 70.3445 125.99C70.6538 126.277 70.8084 126.734 70.8084 127.362V131H70.2176L70.0613 130.209H70.0223C69.8725 130.404 69.7163 130.569 69.5535 130.702C69.3908 130.832 69.202 130.932 68.9871 131C68.7755 131.065 68.5151 131.098 68.2059 131.098C67.8803 131.098 67.5906 131.041 67.3367 130.927C67.0861 130.813 66.8875 130.64 66.741 130.409C66.5978 130.178 66.5262 129.885 66.5262 129.53C66.5262 128.996 66.7378 128.586 67.1609 128.3C67.5841 128.013 68.2286 127.857 69.0945 127.831L70.0174 127.792V127.465C70.0174 127.003 69.9181 126.679 69.7195 126.493C69.521 126.308 69.241 126.215 68.8797 126.215C68.5997 126.215 68.3328 126.256 68.0789 126.337C67.825 126.418 67.5841 126.514 67.3562 126.625L67.1072 126.01C67.3481 125.886 67.6248 125.78 67.9373 125.692C68.2498 125.604 68.5786 125.561 68.9236 125.561ZM70.0076 128.363L69.1922 128.397C68.5249 128.424 68.0545 128.533 67.7811 128.725C67.5076 128.917 67.3709 129.188 67.3709 129.54C67.3709 129.846 67.4637 130.072 67.6492 130.219C67.8348 130.365 68.0805 130.438 68.3865 130.438C68.8618 130.438 69.2508 130.307 69.5535 130.043C69.8562 129.779 70.0076 129.384 70.0076 128.856V128.363ZM75.01 125.551C75.1174 125.551 75.2297 125.557 75.3469 125.57C75.4641 125.58 75.5682 125.595 75.6594 125.614L75.5568 126.366C75.4689 126.343 75.3713 126.326 75.2639 126.312C75.1564 126.299 75.0555 126.293 74.9611 126.293C74.7463 126.293 74.5428 126.337 74.3508 126.425C74.162 126.509 73.996 126.633 73.8527 126.796C73.7095 126.955 73.5972 127.149 73.5158 127.377C73.4344 127.602 73.3938 127.852 73.3938 128.129V131H72.5783V125.648H73.2522L73.34 126.635H73.3742C73.4849 126.436 73.6184 126.256 73.7746 126.093C73.9309 125.927 74.1115 125.795 74.3166 125.697C74.5249 125.6 74.7561 125.551 75.01 125.551ZM86.765 131L85.8861 128.734H83.0248L82.1508 131H81.3109L84.1039 123.832H84.851L87.6244 131H86.765ZM85.6371 127.997L84.8021 125.746C84.7826 125.688 84.7501 125.591 84.7045 125.458C84.6622 125.325 84.6182 125.186 84.5727 125.043C84.5271 124.9 84.4896 124.784 84.4604 124.696C84.4278 124.83 84.392 124.963 84.3529 125.097C84.3171 125.227 84.2813 125.349 84.2455 125.463C84.2097 125.574 84.1788 125.668 84.1527 125.746L83.3031 127.997H85.6371ZM91.1082 125.551C91.7755 125.551 92.3077 125.78 92.7049 126.239C93.102 126.698 93.3006 127.388 93.3006 128.31C93.3006 128.918 93.2094 129.429 93.0271 129.843C92.8449 130.256 92.5877 130.569 92.2557 130.78C91.9269 130.992 91.5379 131.098 91.0887 131.098C90.8055 131.098 90.5564 131.06 90.3416 130.985C90.1268 130.91 89.9428 130.81 89.7898 130.683C89.6368 130.556 89.5099 130.417 89.409 130.268H89.3504C89.3602 130.395 89.3715 130.548 89.3846 130.727C89.4008 130.906 89.409 131.062 89.409 131.195V133.393H88.5936V125.648H89.2625L89.3699 126.439H89.409C89.5131 126.277 89.6401 126.129 89.7898 125.995C89.9396 125.858 90.1219 125.751 90.3367 125.673C90.5548 125.591 90.812 125.551 91.1082 125.551ZM90.9666 126.234C90.5955 126.234 90.296 126.306 90.0682 126.449C89.8436 126.592 89.6792 126.807 89.575 127.094C89.4708 127.377 89.4155 127.733 89.409 128.163V128.319C89.409 128.772 89.4578 129.154 89.5555 129.467C89.6564 129.779 89.8208 130.017 90.0486 130.18C90.2797 130.342 90.589 130.424 90.9764 130.424C91.3084 130.424 91.5851 130.334 91.8064 130.155C92.0278 129.976 92.1922 129.727 92.2996 129.408C92.4103 129.086 92.4656 128.716 92.4656 128.3C92.4656 127.668 92.3419 127.167 92.0945 126.796C91.8504 126.422 91.4744 126.234 90.9666 126.234ZM97.2482 125.551C97.3557 125.551 97.468 125.557 97.5852 125.57C97.7023 125.58 97.8065 125.595 97.8977 125.614L97.7951 126.366C97.7072 126.343 97.6096 126.326 97.5022 126.312C97.3947 126.299 97.2938 126.293 97.1994 126.293C96.9846 126.293 96.7811 126.337 96.5891 126.425C96.4003 126.509 96.2342 126.633 96.091 126.796C95.9478 126.955 95.8355 127.149 95.7541 127.377C95.6727 127.602 95.632 127.852 95.632 128.129V131H94.8166V125.648H95.4904L95.5783 126.635H95.6125C95.7232 126.436 95.8566 126.256 96.0129 126.093C96.1691 125.927 96.3498 125.795 96.5549 125.697C96.7632 125.6 96.9943 125.551 97.2482 125.551ZM107.665 131L105.268 124.682H105.229C105.242 124.815 105.253 124.978 105.263 125.17C105.273 125.362 105.281 125.572 105.287 125.8C105.294 126.024 105.297 126.254 105.297 126.488V131H104.526V123.861H105.756L108.017 129.799H108.051L110.346 123.861H111.567V131H110.746V126.43C110.746 126.218 110.75 126.007 110.756 125.795C110.763 125.58 110.771 125.378 110.781 125.189C110.79 124.997 110.8 124.831 110.81 124.691H110.771L108.344 131H107.665ZM115.5 125.561C116.138 125.561 116.611 125.704 116.921 125.99C117.23 126.277 117.385 126.734 117.385 127.362V131H116.794L116.637 130.209H116.598C116.449 130.404 116.292 130.569 116.13 130.702C115.967 130.832 115.778 130.932 115.563 131C115.352 131.065 115.091 131.098 114.782 131.098C114.457 131.098 114.167 131.041 113.913 130.927C113.662 130.813 113.464 130.64 113.317 130.409C113.174 130.178 113.102 129.885 113.102 129.53C113.102 128.996 113.314 128.586 113.737 128.3C114.16 128.013 114.805 127.857 115.671 127.831L116.594 127.792V127.465C116.594 127.003 116.494 126.679 116.296 126.493C116.097 126.308 115.817 126.215 115.456 126.215C115.176 126.215 114.909 126.256 114.655 126.337C114.401 126.418 114.16 126.514 113.932 126.625L113.683 126.01C113.924 125.886 114.201 125.78 114.513 125.692C114.826 125.604 115.155 125.561 115.5 125.561ZM116.584 128.363L115.768 128.397C115.101 128.424 114.631 128.533 114.357 128.725C114.084 128.917 113.947 129.188 113.947 129.54C113.947 129.846 114.04 130.072 114.225 130.219C114.411 130.365 114.657 130.438 114.963 130.438C115.438 130.438 115.827 130.307 116.13 130.043C116.432 129.779 116.584 129.384 116.584 128.856V128.363ZM118.31 125.648H119.179L120.361 128.754C120.429 128.936 120.492 129.112 120.551 129.281C120.61 129.447 120.662 129.607 120.707 129.76C120.753 129.913 120.789 130.061 120.815 130.204H120.849C120.894 130.041 120.96 129.828 121.044 129.564C121.129 129.298 121.22 129.026 121.318 128.749L122.436 125.648H123.31L120.981 131.786C120.857 132.115 120.712 132.401 120.546 132.646C120.383 132.89 120.185 133.077 119.95 133.207C119.716 133.34 119.433 133.407 119.101 133.407C118.948 133.407 118.813 133.397 118.696 133.378C118.578 133.362 118.477 133.342 118.393 133.319V132.67C118.464 132.686 118.551 132.701 118.652 132.714C118.756 132.727 118.863 132.733 118.974 132.733C119.176 132.733 119.35 132.694 119.496 132.616C119.646 132.541 119.775 132.431 119.882 132.284C119.989 132.138 120.082 131.964 120.16 131.762L120.453 131.01L118.31 125.648ZM154.793 132.88C154.63 132.88 154.487 132.868 154.363 132.846C154.24 132.823 154.134 132.792 154.046 132.753V132.045C154.15 132.077 154.263 132.102 154.383 132.118C154.503 132.138 154.634 132.147 154.774 132.147C154.956 132.147 155.124 132.112 155.277 132.04C155.43 131.968 155.552 131.846 155.643 131.674C155.734 131.501 155.779 131.264 155.779 130.961V123.861H156.614V130.897C156.614 131.343 156.54 131.713 156.39 132.006C156.243 132.299 156.033 132.517 155.76 132.66C155.49 132.807 155.168 132.88 154.793 132.88ZM162.906 125.648V131H162.242L162.125 130.248H162.081C161.97 130.434 161.827 130.59 161.651 130.717C161.475 130.844 161.277 130.938 161.055 131C160.837 131.065 160.604 131.098 160.357 131.098C159.934 131.098 159.579 131.029 159.293 130.893C159.006 130.756 158.79 130.544 158.643 130.258C158.5 129.971 158.428 129.604 158.428 129.154V125.648H159.249V129.096C159.249 129.542 159.35 129.875 159.551 130.097C159.753 130.315 160.061 130.424 160.474 130.424C160.871 130.424 161.187 130.349 161.421 130.199C161.659 130.049 161.83 129.83 161.934 129.54C162.038 129.247 162.09 128.889 162.09 128.466V125.648H162.906ZM165.535 131H164.72V123.402H165.535V131Z" fill="#6D7589"/>
<path d="M131.449 132.88C131.286 132.88 131.143 132.868 131.019 132.846C130.896 132.823 130.79 132.792 130.702 132.753V132.045C130.806 132.077 130.918 132.102 131.039 132.118C131.159 132.138 131.29 132.147 131.429 132.147C131.612 132.147 131.779 132.112 131.932 132.04C132.085 131.968 132.207 131.846 132.299 131.674C132.39 131.501 132.435 131.264 132.435 130.961V123.861H133.27V130.897C133.27 131.343 133.195 131.713 133.046 132.006C132.899 132.299 132.689 132.517 132.416 132.66C132.146 132.807 131.823 132.88 131.449 132.88ZM139.562 125.648V131H138.898L138.78 130.248H138.737C138.626 130.434 138.483 130.59 138.307 130.717C138.131 130.844 137.932 130.938 137.711 131C137.493 131.065 137.26 131.098 137.013 131.098C136.59 131.098 136.235 131.029 135.948 130.893C135.662 130.756 135.446 130.544 135.299 130.258C135.156 129.971 135.084 129.604 135.084 129.154V125.648H135.904V129.096C135.904 129.542 136.005 129.875 136.207 130.097C136.409 130.315 136.717 130.424 137.13 130.424C137.527 130.424 137.843 130.349 138.077 130.199C138.315 130.049 138.486 129.83 138.59 129.54C138.694 129.247 138.746 128.889 138.746 128.466V125.648H139.562ZM143.91 125.551C144.545 125.551 145.025 125.707 145.35 126.02C145.676 126.329 145.838 126.827 145.838 127.514V131H145.038V127.567C145.038 127.121 144.935 126.788 144.73 126.566C144.528 126.345 144.217 126.234 143.797 126.234C143.205 126.234 142.788 126.402 142.547 126.737C142.307 127.073 142.186 127.559 142.186 128.197V131H141.376V125.648H142.03L142.152 126.42H142.196C142.31 126.231 142.455 126.073 142.63 125.946C142.806 125.816 143.003 125.718 143.221 125.653C143.439 125.585 143.669 125.551 143.91 125.551Z" fill="#101828"/>
<path d="M5.83398 30.1895C5.36133 30.1895 4.93555 30.2715 4.55664 30.4355C4.18164 30.5957 3.86133 30.8301 3.5957 31.1387C3.33398 31.4434 3.13281 31.8125 2.99219 32.2461C2.85156 32.6797 2.78125 33.168 2.78125 33.7109C2.78125 34.4297 2.89258 35.0547 3.11523 35.5859C3.3418 36.1133 3.67773 36.5215 4.12305 36.8105C4.57227 37.0996 5.13281 37.2441 5.80469 37.2441C6.1875 37.2441 6.54688 37.2129 6.88281 37.1504C7.22266 37.084 7.55273 37.002 7.87305 36.9043V37.7715C7.56055 37.8887 7.23242 37.9746 6.88867 38.0293C6.54492 38.0879 6.13672 38.1172 5.66406 38.1172C4.79297 38.1172 4.06445 37.9375 3.47852 37.5781C2.89648 37.2148 2.45898 36.7031 2.16602 36.043C1.87695 35.3828 1.73242 34.6035 1.73242 33.7051C1.73242 33.0566 1.82227 32.4648 2.00195 31.9297C2.18555 31.3906 2.45117 30.9258 2.79883 30.5352C3.15039 30.1445 3.58008 29.8438 4.08789 29.6328C4.59961 29.418 5.18555 29.3105 5.8457 29.3105C6.2793 29.3105 6.69727 29.3535 7.09961 29.4395C7.50195 29.5254 7.86523 29.6484 8.18945 29.8086L7.79102 30.6523C7.51758 30.5273 7.2168 30.4199 6.88867 30.3301C6.56445 30.2363 6.21289 30.1895 5.83398 30.1895ZM15.1211 34.7773C15.1211 35.3047 15.0527 35.7754 14.916 36.1895C14.7793 36.6035 14.582 36.9531 14.3242 37.2383C14.0664 37.5234 13.7539 37.7422 13.3867 37.8945C13.0234 38.043 12.6113 38.1172 12.1504 38.1172C11.7207 38.1172 11.3262 38.043 10.9668 37.8945C10.6113 37.7422 10.3027 37.5234 10.041 37.2383C9.7832 36.9531 9.58203 36.6035 9.4375 36.1895C9.29688 35.7754 9.22656 35.3047 9.22656 34.7773C9.22656 34.0742 9.3457 33.4766 9.58398 32.9844C9.82227 32.4883 10.1621 32.1113 10.6035 31.8535C11.0488 31.5918 11.5781 31.4609 12.1914 31.4609C12.7773 31.4609 13.2891 31.5918 13.7266 31.8535C14.168 32.1152 14.5098 32.4941 14.752 32.9902C14.998 33.4824 15.1211 34.0781 15.1211 34.7773ZM10.2344 34.7773C10.2344 35.293 10.3027 35.7402 10.4395 36.1191C10.5762 36.498 10.7871 36.791 11.0723 36.998C11.3574 37.2051 11.7246 37.3086 12.1738 37.3086C12.6191 37.3086 12.9844 37.2051 13.2695 36.998C13.5586 36.791 13.7715 36.498 13.9082 36.1191C14.0449 35.7402 14.1133 35.293 14.1133 34.7773C14.1133 34.2656 14.0449 33.8242 13.9082 33.4531C13.7715 33.0781 13.5605 32.7891 13.2754 32.5859C12.9902 32.3828 12.6211 32.2812 12.168 32.2812C11.5 32.2812 11.0098 32.502 10.6973 32.9434C10.3887 33.3848 10.2344 33.9961 10.2344 34.7773ZM22.1055 31.5781V38H21.3086L21.168 37.0977H21.1152C20.9824 37.3203 20.8105 37.5078 20.5996 37.6602C20.3887 37.8125 20.1504 37.9258 19.8848 38C19.623 38.0781 19.3438 38.1172 19.0469 38.1172C18.5391 38.1172 18.1133 38.0352 17.7695 37.8711C17.4258 37.707 17.166 37.4531 16.9902 37.1094C16.8184 36.7656 16.7324 36.3242 16.7324 35.7852V31.5781H17.7168V35.7148C17.7168 36.25 17.8379 36.6504 18.0801 36.916C18.3223 37.1777 18.6914 37.3086 19.1875 37.3086C19.6641 37.3086 20.043 37.2188 20.3242 37.0391C20.6094 36.8594 20.8145 36.5957 20.9395 36.248C21.0645 35.8965 21.127 35.4668 21.127 34.959V31.5781H22.1055ZM27.0801 31.4609C27.209 31.4609 27.3438 31.4688 27.4844 31.4844C27.625 31.4961 27.75 31.5137 27.8594 31.5371L27.7363 32.4395C27.6309 32.4121 27.5137 32.3906 27.3848 32.375C27.2559 32.3594 27.1348 32.3516 27.0215 32.3516C26.7637 32.3516 26.5195 32.4043 26.2891 32.5098C26.0625 32.6113 25.8633 32.7598 25.6914 32.9551C25.5195 33.1465 25.3848 33.3789 25.2871 33.6523C25.1895 33.9219 25.1406 34.2227 25.1406 34.5547V38H24.1621V31.5781H24.9707L25.0762 32.7617H25.1172C25.25 32.5234 25.4102 32.3066 25.5977 32.1113C25.7852 31.9121 26.002 31.7539 26.248 31.6367C26.498 31.5195 26.7754 31.4609 27.0801 31.4609ZM33.2266 36.2422C33.2266 36.6523 33.123 36.998 32.916 37.2793C32.7129 37.5566 32.4199 37.7656 32.0371 37.9062C31.6582 38.0469 31.2051 38.1172 30.6777 38.1172C30.2285 38.1172 29.8398 38.082 29.5117 38.0117C29.1836 37.9414 28.8965 37.8418 28.6504 37.7129V36.8164C28.9121 36.9453 29.2246 37.0625 29.5879 37.168C29.9512 37.2734 30.3223 37.3262 30.7012 37.3262C31.2559 37.3262 31.6582 37.2363 31.9082 37.0566C32.1582 36.877 32.2832 36.6328 32.2832 36.3242C32.2832 36.1484 32.2324 35.9941 32.1309 35.8613C32.0332 35.7246 31.8672 35.5938 31.6328 35.4688C31.3984 35.3398 31.0742 35.1992 30.6602 35.0469C30.25 34.8906 29.8945 34.7363 29.5938 34.584C29.2969 34.4277 29.0664 34.2383 28.9023 34.0156C28.7422 33.793 28.6621 33.5039 28.6621 33.1484C28.6621 32.6055 28.8809 32.1895 29.3184 31.9004C29.7598 31.6074 30.3379 31.4609 31.0527 31.4609C31.4395 31.4609 31.8008 31.5 32.1367 31.5781C32.4766 31.6523 32.793 31.7539 33.0859 31.8828L32.7578 32.6621C32.4922 32.5488 32.209 32.4531 31.9082 32.375C31.6074 32.2969 31.3008 32.2578 30.9883 32.2578C30.5391 32.2578 30.1934 32.332 29.9512 32.4805C29.7129 32.6289 29.5938 32.832 29.5938 33.0898C29.5938 33.2891 29.6484 33.4531 29.7578 33.582C29.8711 33.7109 30.0508 33.832 30.2969 33.9453C30.543 34.0586 30.8672 34.1914 31.2695 34.3438C31.6719 34.4922 32.0195 34.6465 32.3125 34.8066C32.6055 34.9629 32.8301 35.1543 32.9863 35.3809C33.1465 35.6035 33.2266 35.8906 33.2266 36.2422ZM37.2637 31.4609C37.8105 31.4609 38.2793 31.582 38.6699 31.8242C39.0605 32.0664 39.3594 32.4062 39.5664 32.8438C39.7734 33.2773 39.877 33.7852 39.877 34.3672V34.9707H35.4414C35.4531 35.7246 35.6406 36.2988 36.0039 36.6934C36.3672 37.0879 36.8789 37.2852 37.5391 37.2852C37.9453 37.2852 38.3047 37.248 38.6172 37.1738C38.9297 37.0996 39.2539 36.9902 39.5898 36.8457V37.7012C39.2656 37.8457 38.9434 37.9512 38.623 38.0176C38.3066 38.084 37.9316 38.1172 37.498 38.1172C36.8809 38.1172 36.3418 37.9922 35.8809 37.7422C35.4238 37.4883 35.0684 37.1172 34.8145 36.6289C34.5605 36.1406 34.4336 35.543 34.4336 34.8359C34.4336 34.1445 34.5488 33.5469 34.7793 33.043C35.0137 32.5352 35.3418 32.1445 35.7637 31.8711C36.1895 31.5977 36.6895 31.4609 37.2637 31.4609ZM37.252 32.2578C36.7324 32.2578 36.3184 32.4277 36.0098 32.7676C35.7012 33.1074 35.5176 33.582 35.459 34.1914H38.8574C38.8535 33.8086 38.793 33.4727 38.6758 33.1836C38.5625 32.8906 38.3887 32.6641 38.1543 32.5039C37.9199 32.3398 37.6191 32.2578 37.252 32.2578ZM7.5625 48.7773C7.5625 49.3047 7.49414 49.7754 7.35742 50.1895C7.2207 50.6035 7.02344 50.9531 6.76562 51.2383C6.50781 51.5234 6.19531 51.7422 5.82812 51.8945C5.46484 52.043 5.05273 52.1172 4.5918 52.1172C4.16211 52.1172 3.76758 52.043 3.4082 51.8945C3.05273 51.7422 2.74414 51.5234 2.48242 51.2383C2.22461 50.9531 2.02344 50.6035 1.87891 50.1895C1.73828 49.7754 1.66797 49.3047 1.66797 48.7773C1.66797 48.0742 1.78711 47.4766 2.02539 46.9844C2.26367 46.4883 2.60352 46.1113 3.04492 45.8535C3.49023 45.5918 4.01953 45.4609 4.63281 45.4609C5.21875 45.4609 5.73047 45.5918 6.16797 45.8535C6.60938 46.1152 6.95117 46.4941 7.19336 46.9902C7.43945 47.4824 7.5625 48.0781 7.5625 48.7773ZM2.67578 48.7773C2.67578 49.293 2.74414 49.7402 2.88086 50.1191C3.01758 50.498 3.22852 50.791 3.51367 50.998C3.79883 51.2051 4.16602 51.3086 4.61523 51.3086C5.06055 51.3086 5.42578 51.2051 5.71094 50.998C6 50.791 6.21289 50.498 6.34961 50.1191C6.48633 49.7402 6.55469 49.293 6.55469 48.7773C6.55469 48.2656 6.48633 47.8242 6.34961 47.4531C6.21289 47.0781 6.00195 46.7891 5.7168 46.5859C5.43164 46.3828 5.0625 46.2812 4.60938 46.2812C3.94141 46.2812 3.45117 46.502 3.13867 46.9434C2.83008 47.3848 2.67578 47.9961 2.67578 48.7773ZM10.6562 52L8.21875 45.5781H9.26172L10.6738 49.4629C10.7715 49.7285 10.8711 50.0215 10.9727 50.3418C11.0742 50.6621 11.1445 50.9199 11.1836 51.1152H11.2246C11.2715 50.9199 11.3496 50.6621 11.459 50.3418C11.5684 50.0176 11.668 49.7246 11.7578 49.4629L13.1699 45.5781H14.2129L11.7695 52H10.6562ZM17.7168 45.4609C18.2637 45.4609 18.7324 45.582 19.123 45.8242C19.5137 46.0664 19.8125 46.4062 20.0195 46.8438C20.2266 47.2773 20.3301 47.7852 20.3301 48.3672V48.9707H15.8945C15.9062 49.7246 16.0938 50.2988 16.457 50.6934C16.8203 51.0879 17.332 51.2852 17.9922 51.2852C18.3984 51.2852 18.7578 51.248 19.0703 51.1738C19.3828 51.0996 19.707 50.9902 20.043 50.8457V51.7012C19.7188 51.8457 19.3965 51.9512 19.0762 52.0176C18.7598 52.084 18.3848 52.1172 17.9512 52.1172C17.334 52.1172 16.7949 51.9922 16.334 51.7422C15.877 51.4883 15.5215 51.1172 15.2676 50.6289C15.0137 50.1406 14.8867 49.543 14.8867 48.8359C14.8867 48.1445 15.002 47.5469 15.2324 47.043C15.4668 46.5352 15.7949 46.1445 16.2168 45.8711C16.6426 45.5977 17.1426 45.4609 17.7168 45.4609ZM17.7051 46.2578C17.1855 46.2578 16.7715 46.4277 16.4629 46.7676C16.1543 47.1074 15.9707 47.582 15.9121 48.1914H19.3105C19.3066 47.8086 19.2461 47.4727 19.1289 47.1836C19.0156 46.8906 18.8418 46.6641 18.6074 46.5039C18.373 46.3398 18.0723 46.2578 17.7051 46.2578ZM24.9004 45.4609C25.0293 45.4609 25.1641 45.4688 25.3047 45.4844C25.4453 45.4961 25.5703 45.5137 25.6797 45.5371L25.5566 46.4395C25.4512 46.4121 25.334 46.3906 25.2051 46.375C25.0762 46.3594 24.9551 46.3516 24.8418 46.3516C24.584 46.3516 24.3398 46.4043 24.1094 46.5098C23.8828 46.6113 23.6836 46.7598 23.5117 46.9551C23.3398 47.1465 23.2051 47.3789 23.1074 47.6523C23.0098 47.9219 22.9609 48.2227 22.9609 48.5547V52H21.9824V45.5781H22.791L22.8965 46.7617H22.9375C23.0703 46.5234 23.2305 46.3066 23.418 46.1113C23.6055 45.9121 23.8223 45.7539 24.0684 45.6367C24.3184 45.5195 24.5957 45.4609 24.9004 45.4609ZM28.3047 52L25.8672 45.5781H26.9102L28.3223 49.4629C28.4199 49.7285 28.5195 50.0215 28.6211 50.3418C28.7227 50.6621 28.793 50.9199 28.832 51.1152H28.873C28.9199 50.9199 28.998 50.6621 29.1074 50.3418C29.2168 50.0176 29.3164 49.7246 29.4062 49.4629L30.8184 45.5781H31.8613L29.418 52H28.3047ZM33.8652 45.5781V52H32.8926V45.5781H33.8652ZM33.3906 43.1758C33.5508 43.1758 33.6875 43.2285 33.8008 43.334C33.918 43.4355 33.9766 43.5957 33.9766 43.8145C33.9766 44.0293 33.918 44.1895 33.8008 44.2949C33.6875 44.4004 33.5508 44.4531 33.3906 44.4531C33.2227 44.4531 33.082 44.4004 32.9688 44.2949C32.8594 44.1895 32.8047 44.0293 32.8047 43.8145C32.8047 43.5957 32.8594 43.4355 32.9688 43.334C33.082 43.2285 33.2227 43.1758 33.3906 43.1758ZM38.4004 45.4609C38.9473 45.4609 39.416 45.582 39.8066 45.8242C40.1973 46.0664 40.4961 46.4062 40.7031 46.8438C40.9102 47.2773 41.0137 47.7852 41.0137 48.3672V48.9707H36.5781C36.5898 49.7246 36.7773 50.2988 37.1406 50.6934C37.5039 51.0879 38.0156 51.2852 38.6758 51.2852C39.082 51.2852 39.4414 51.248 39.7539 51.1738C40.0664 51.0996 40.3906 50.9902 40.7266 50.8457V51.7012C40.4023 51.8457 40.0801 51.9512 39.7598 52.0176C39.4434 52.084 39.0684 52.1172 38.6348 52.1172C38.0176 52.1172 37.4785 51.9922 37.0176 51.7422C36.5605 51.4883 36.2051 51.1172 35.9512 50.6289C35.6973 50.1406 35.5703 49.543 35.5703 48.8359C35.5703 48.1445 35.6855 47.5469 35.916 47.043C36.1504 46.5352 36.4785 46.1445 36.9004 45.8711C37.3262 45.5977 37.8262 45.4609 38.4004 45.4609ZM38.3887 46.2578C37.8691 46.2578 37.4551 46.4277 37.1465 46.7676C36.8379 47.1074 36.6543 47.582 36.5957 48.1914H39.9941C39.9902 47.8086 39.9297 47.4727 39.8125 47.1836C39.6992 46.8906 39.5254 46.6641 39.291 46.5039C39.0566 46.3398 38.7559 46.2578 38.3887 46.2578ZM47.8926 51.9883L46.75 48.25C46.6992 48.0898 46.6504 47.9336 46.6035 47.7812C46.5605 47.625 46.5195 47.4766 46.4805 47.3359C46.4453 47.1914 46.4121 47.0586 46.3809 46.9375C46.3535 46.8125 46.3301 46.7051 46.3105 46.6152H46.2695C46.2539 46.7051 46.2324 46.8125 46.2051 46.9375C46.1777 47.0586 46.1445 47.1914 46.1055 47.3359C46.0703 47.4805 46.0312 47.6328 45.9883 47.793C45.9453 47.9492 45.8965 48.1074 45.8418 48.2676L44.6465 51.9883H43.5508L41.7812 45.5664H42.7891L43.7148 49.1113C43.7773 49.3457 43.8359 49.5781 43.8906 49.8086C43.9492 50.0352 43.998 50.25 44.0371 50.4531C44.0801 50.6523 44.1113 50.8262 44.1309 50.9746H44.1777C44.2012 50.877 44.2266 50.7598 44.2539 50.623C44.2852 50.4863 44.3184 50.3418 44.3535 50.1895C44.3926 50.0332 44.4336 49.8789 44.4766 49.7266C44.5195 49.5703 44.5625 49.4238 44.6055 49.2871L45.7891 45.5664H46.8379L47.9805 49.2812C48.0391 49.4688 48.0957 49.6641 48.1504 49.8672C48.209 50.0703 48.2617 50.2676 48.3086 50.459C48.3555 50.6465 48.3887 50.8145 48.4082 50.9629H48.4551C48.4707 50.8301 48.5 50.666 48.543 50.4707C48.5859 50.2754 48.6348 50.0605 48.6895 49.8262C48.748 49.5918 48.8086 49.3535 48.8711 49.1113L49.8086 45.5664H50.7988L49.0234 51.9883H47.8926Z" fill="#101828"/>
<path d="M101.82 43.3711H104.234V44.168H101.82V46.6523H101.018V44.168H98.6035V43.3711H101.018V40.875H101.82V43.3711ZM109.08 48H108.131V41.9297C108.131 41.6992 108.131 41.502 108.131 41.3379C108.135 41.1699 108.139 41.0176 108.143 40.8809C108.15 40.7402 108.16 40.5977 108.172 40.4531C108.051 40.5781 107.938 40.6855 107.832 40.7754C107.727 40.8613 107.596 40.9688 107.439 41.0977L106.461 41.8828L105.951 41.2207L108.271 39.4336H109.08V48ZM115.033 42.7617C115.615 42.7617 116.121 42.8613 116.551 43.0605C116.98 43.2559 117.312 43.541 117.547 43.916C117.785 44.291 117.904 44.7461 117.904 45.2812C117.904 45.8672 117.777 46.373 117.523 46.7988C117.27 47.2207 116.904 47.5469 116.428 47.7773C115.951 48.0039 115.381 48.1172 114.717 48.1172C114.271 48.1172 113.857 48.0781 113.475 48C113.092 47.9219 112.77 47.8047 112.508 47.6484V46.7227C112.793 46.8945 113.139 47.0312 113.545 47.1328C113.951 47.2344 114.346 47.2852 114.729 47.2852C115.162 47.2852 115.541 47.2168 115.865 47.0801C116.193 46.9395 116.447 46.7285 116.627 46.4473C116.811 46.1621 116.902 45.8047 116.902 45.375C116.902 44.8047 116.727 44.3652 116.375 44.0566C116.027 43.7441 115.477 43.5879 114.723 43.5879C114.48 43.5879 114.215 43.6074 113.926 43.6465C113.637 43.6855 113.398 43.7285 113.211 43.7754L112.719 43.4531L113.047 39.4336H117.307V40.3242H113.879L113.662 42.9082C113.811 42.877 114.002 42.8457 114.236 42.8145C114.471 42.7793 114.736 42.7617 115.033 42.7617ZM120.939 39.3105C121.525 39.3105 121.969 39.5449 122.27 40.0137C122.574 40.4785 122.727 41.1367 122.727 41.9883C122.727 42.8398 122.58 43.5039 122.287 43.9805C121.994 44.4531 121.545 44.6895 120.939 44.6895C120.377 44.6895 119.945 44.4531 119.645 43.9805C119.348 43.5039 119.199 42.8398 119.199 41.9883C119.199 41.1367 119.342 40.4785 119.627 40.0137C119.912 39.5449 120.35 39.3105 120.939 39.3105ZM120.939 40.0078C120.623 40.0078 120.391 40.1738 120.242 40.5059C120.094 40.834 120.02 41.3281 120.02 41.9883C120.02 42.6484 120.094 43.1465 120.242 43.4824C120.391 43.8184 120.623 43.9863 120.939 43.9863C121.268 43.9863 121.512 43.8184 121.672 43.4824C121.832 43.1465 121.912 42.6484 121.912 41.9883C121.912 41.332 121.832 40.8379 121.672 40.5059C121.516 40.1738 121.271 40.0078 120.939 40.0078ZM126.365 39.4336L121.613 48H120.758L125.51 39.4336H126.365ZM126.137 42.7441C126.719 42.7441 127.162 42.9785 127.467 43.4473C127.771 43.9121 127.924 44.5703 127.924 45.4219C127.924 46.2695 127.777 46.9316 127.484 47.4082C127.191 47.8809 126.742 48.1172 126.137 48.1172C125.57 48.1172 125.139 47.8809 124.842 47.4082C124.545 46.9316 124.396 46.2695 124.396 45.4219C124.396 44.5703 124.537 43.9121 124.818 43.4473C125.104 42.9785 125.543 42.7441 126.137 42.7441ZM126.137 43.4473C125.82 43.4473 125.588 43.6113 125.439 43.9395C125.291 44.2676 125.217 44.7617 125.217 45.4219C125.217 46.082 125.291 46.5801 125.439 46.916C125.588 47.248 125.82 47.4141 126.137 47.4141C126.465 47.4141 126.709 47.25 126.869 46.9219C127.029 46.5898 127.109 46.0898 127.109 45.4219C127.109 44.7656 127.029 44.2734 126.869 43.9453C126.713 43.6133 126.469 43.4473 126.137 43.4473Z" fill="#101828"/>
</svg>

