<svg width="72" height="101" viewBox="0 0 72 101" fill="none" xmlns="http://www.w3.org/2000/svg">
<path d="M7.03825 72.44C7.79558 72.44 8.44625 72.5733 8.99025 72.84C9.54492 73.1067 9.97692 73.4853 10.2863 73.976C10.5956 74.4667 10.7503 75.0587 10.7503 75.752C10.7503 76.4347 10.5956 77.0267 10.2863 77.528C9.97692 78.0187 9.54492 78.3973 8.99025 78.664C8.44625 78.9307 7.79558 79.064 7.03825 79.064H4.68625V83H2.97425V72.44H7.03825ZM6.76625 77.592C7.52358 77.592 8.07825 77.4373 8.43025 77.128C8.79292 76.808 8.97425 76.3493 8.97425 75.752C8.97425 75.144 8.79292 74.6853 8.43025 74.376C8.07825 74.056 7.52358 73.896 6.76625 73.896H4.68625V77.592H6.76625ZM17.3895 77.864C17.3895 77.3307 17.2402 76.92 16.9415 76.632C16.6535 76.3333 16.2535 76.184 15.7415 76.184C15.2615 76.184 14.8508 76.296 14.5095 76.52C14.1682 76.744 13.9175 77.1067 13.7575 77.608L12.3175 77C12.5202 76.3493 12.9148 75.8267 13.5015 75.432C14.0988 75.0373 14.8668 74.84 15.8055 74.84C16.4455 74.84 17.0108 74.9467 17.5015 75.16C17.9922 75.3627 18.3762 75.672 18.6535 76.088C18.9415 76.504 19.0855 77.0373 19.0855 77.688V81.256C19.0855 81.6507 19.2828 81.848 19.6775 81.848C19.8695 81.848 20.0562 81.8213 20.2375 81.768L20.1415 82.952C19.8962 83.0693 19.5868 83.128 19.2135 83.128C18.8722 83.128 18.5628 83.0693 18.2855 82.952C18.0188 82.824 17.8055 82.6373 17.6455 82.392C17.4962 82.136 17.4215 81.8213 17.4215 81.448V81.336L17.7735 81.32C17.6775 81.736 17.4802 82.0827 17.1815 82.36C16.8828 82.6267 16.5362 82.8293 16.1415 82.968C15.7468 83.096 15.3468 83.16 14.9415 83.16C14.4402 83.16 13.9868 83.08 13.5815 82.92C13.1868 82.76 12.8722 82.52 12.6375 82.2C12.4135 81.8693 12.3015 81.464 12.3015 80.984C12.3015 80.3867 12.4935 79.896 12.8775 79.512C13.2722 79.128 13.8268 78.8667 14.5415 78.728L17.6455 78.12L17.6295 79.32L15.3735 79.784C14.9255 79.8693 14.5895 79.992 14.3655 80.152C14.1415 80.312 14.0295 80.5467 14.0295 80.856C14.0295 81.1547 14.1415 81.3947 14.3655 81.576C14.6002 81.7467 14.9095 81.832 15.2935 81.832C15.5602 81.832 15.8162 81.8 16.0615 81.736C16.3175 81.672 16.5468 81.5707 16.7495 81.432C16.9522 81.2827 17.1068 81.096 17.2135 80.872C17.3308 80.6373 17.3895 80.36 17.3895 80.04V77.864ZM28.4301 75L24.9261 83.944C24.6915 84.5627 24.4355 85.0533 24.1581 85.416C23.8915 85.7787 23.5821 86.04 23.2301 86.2C22.8781 86.36 22.4675 86.44 21.9981 86.44C21.6141 86.44 21.2568 86.3867 20.9261 86.28C20.6061 86.184 20.3235 86.0507 20.0781 85.88L20.4941 84.552C20.6968 84.7227 20.9101 84.8507 21.1341 84.936C21.3688 85.0213 21.6195 85.064 21.8861 85.064C22.1741 85.064 22.4301 84.984 22.6541 84.824C22.8888 84.6747 23.0968 84.3707 23.2781 83.912L23.6301 83.048L22.7821 81.064L20.2861 75H22.2061L23.9821 80.024L24.4461 81.528L24.9741 79.88L26.6541 75H28.4301ZM29.8905 83V75H31.4105L31.4905 76.344C31.7678 75.832 32.1358 75.4533 32.5945 75.208C33.0638 74.9627 33.5598 74.84 34.0825 74.84C34.6585 74.84 35.1865 74.9733 35.6665 75.24C36.1572 75.496 36.5252 75.8853 36.7705 76.408C36.9412 76.056 37.1758 75.7627 37.4745 75.528C37.7732 75.2933 38.1038 75.1227 38.4665 75.016C38.8292 74.8987 39.1865 74.84 39.5385 74.84C40.0505 74.84 40.5305 74.9467 40.9785 75.16C41.4265 75.3733 41.7892 75.6987 42.0665 76.136C42.3438 76.5733 42.4825 77.1333 42.4825 77.816V83H40.7705V78.088C40.7705 77.4373 40.6158 76.968 40.3065 76.68C39.9972 76.392 39.6025 76.248 39.1225 76.248C38.7492 76.248 38.4025 76.3387 38.0825 76.52C37.7732 76.7013 37.5225 76.9733 37.3305 77.336C37.1385 77.688 37.0425 78.1253 37.0425 78.648V83H35.3305V78.088C35.3305 77.4373 35.1758 76.968 34.8665 76.68C34.5572 76.392 34.1625 76.248 33.6825 76.248C33.3625 76.248 33.0425 76.3333 32.7225 76.504C32.4025 76.6747 32.1358 76.9413 31.9225 77.304C31.7092 77.6667 31.6025 78.1467 31.6025 78.744V83H29.8905ZM48.598 83.16C47.798 83.16 47.094 82.9947 46.486 82.664C45.878 82.3333 45.4033 81.8587 45.062 81.24C44.7313 80.6107 44.566 79.864 44.566 79C44.566 78.136 44.7313 77.3947 45.062 76.776C45.4033 76.1467 45.8727 75.6667 46.47 75.336C47.0673 75.0053 47.7447 74.84 48.502 74.84C49.2807 74.84 49.942 75 50.486 75.32C51.03 75.64 51.446 76.0773 51.734 76.632C52.022 77.1867 52.166 77.816 52.166 78.52C52.166 78.712 52.1607 78.8933 52.15 79.064C52.1393 79.2347 52.1233 79.384 52.102 79.512H45.67V78.2H51.35L50.502 78.456C50.502 77.7307 50.3207 77.176 49.958 76.792C49.5953 76.3973 49.0993 76.2 48.47 76.2C48.0113 76.2 47.6113 76.3067 47.27 76.52C46.9287 76.7333 46.6673 77.0533 46.486 77.48C46.3047 77.896 46.214 78.408 46.214 79.016C46.214 79.6133 46.31 80.12 46.502 80.536C46.694 80.952 46.966 81.2667 47.318 81.48C47.67 81.6933 48.086 81.8 48.566 81.8C49.0993 81.8 49.5313 81.6987 49.862 81.496C50.1927 81.2933 50.454 81.0107 50.646 80.648L52.006 81.288C51.814 81.672 51.5527 82.008 51.222 82.296C50.902 82.5733 50.518 82.7867 50.07 82.936C49.622 83.0853 49.1313 83.16 48.598 83.16ZM54.328 83V75H55.848L55.96 77.08L55.736 76.856C55.8853 76.3973 56.0987 76.0187 56.376 75.72C56.664 75.4107 57 75.1867 57.384 75.048C57.7787 74.9093 58.1947 74.84 58.632 74.84C59.1973 74.84 59.704 74.952 60.152 75.176C60.6107 75.3893 60.9733 75.7147 61.24 76.152C61.5067 76.5893 61.64 77.144 61.64 77.816V83H59.928V78.344C59.928 77.5547 59.7627 77.0107 59.432 76.712C59.112 76.4027 58.7067 76.248 58.216 76.248C57.864 76.248 57.5227 76.3333 57.192 76.504C56.8613 76.664 56.584 76.9253 56.36 77.288C56.1467 77.6507 56.04 78.136 56.04 78.744V83H54.328ZM66.4765 72.648V80.6C66.4765 80.9947 66.5778 81.2827 66.7805 81.464C66.9938 81.6453 67.2765 81.736 67.6285 81.736C67.9165 81.736 68.1672 81.6933 68.3805 81.608C68.5938 81.512 68.7912 81.384 68.9725 81.224L69.3565 82.472C69.1112 82.6853 68.8072 82.856 68.4445 82.984C68.0925 83.1013 67.6978 83.16 67.2605 83.16C66.8018 83.16 66.3805 83.0853 65.9965 82.936C65.6125 82.7867 65.3138 82.5467 65.1005 82.216C64.8872 81.8747 64.7752 81.432 64.7645 80.888V73.128L66.4765 72.648ZM69.2285 75V76.344H63.2285V75H69.2285Z" fill="#101828"/>
<path d="M10.1182 92.9C10.5915 92.9 11.0082 93.0033 11.3682 93.21C11.7348 93.4167 12.0215 93.7167 12.2282 94.11C12.4348 94.4967 12.5382 94.96 12.5382 95.5C12.5382 96.04 12.4348 96.5067 12.2282 96.9C12.0215 97.2867 11.7348 97.5833 11.3682 97.79C11.0082 97.9967 10.5915 98.1 10.1182 98.1C9.6515 98.1 9.23483 97.9967 8.86816 97.79C8.5015 97.5833 8.21483 97.2867 8.00816 96.9C7.8015 96.5067 7.69816 96.04 7.69816 95.5C7.69816 94.96 7.8015 94.4967 8.00816 94.11C8.21483 93.7167 8.5015 93.4167 8.86816 93.21C9.23483 93.0033 9.6515 92.9 10.1182 92.9ZM10.1182 93.59C9.77816 93.59 9.48816 93.6667 9.24816 93.82C9.00816 93.9733 8.8215 94.1933 8.68816 94.48C8.5615 94.76 8.49816 95.1 8.49816 95.5C8.49816 95.8933 8.5615 96.2333 8.68816 96.52C8.8215 96.8067 9.00816 97.0267 9.24816 97.18C9.48816 97.3333 9.77816 97.41 10.1182 97.41C10.4582 97.41 10.7482 97.3333 10.9882 97.18C11.2282 97.0267 11.4115 96.8067 11.5382 96.52C11.6715 96.2333 11.7382 95.8933 11.7382 95.5C11.7382 95.1 11.6715 94.76 11.5382 94.48C11.4115 94.1933 11.2282 93.9733 10.9882 93.82C10.7482 93.6667 10.4582 93.59 10.1182 93.59ZM14.0443 98V93H14.7443L14.8143 94.12L14.6843 94.01C14.7909 93.7433 14.9343 93.53 15.1143 93.37C15.2943 93.2033 15.5009 93.0833 15.7343 93.01C15.9743 92.9367 16.2209 92.9 16.4743 92.9C16.8343 92.9 17.1609 92.97 17.4543 93.11C17.7476 93.2433 17.9809 93.45 18.1543 93.73C18.3343 94.01 18.4243 94.3667 18.4243 94.8V98H17.6243V95.08C17.6243 94.5267 17.5043 94.1433 17.2643 93.93C17.0309 93.71 16.7409 93.6 16.3943 93.6C16.1543 93.6 15.9143 93.6567 15.6743 93.77C15.4343 93.8833 15.2343 94.0667 15.0743 94.32C14.9209 94.5733 14.8443 94.9133 14.8443 95.34V98H14.0443ZM25.7139 92.9C26.1872 92.9 26.6039 93.0033 26.9639 93.21C27.3305 93.4167 27.6172 93.7167 27.8239 94.11C28.0305 94.4967 28.1339 94.96 28.1339 95.5C28.1339 96.04 28.0305 96.5067 27.8239 96.9C27.6172 97.2867 27.3305 97.5833 26.9639 97.79C26.6039 97.9967 26.1872 98.1 25.7139 98.1C25.2472 98.1 24.8305 97.9967 24.4639 97.79C24.0972 97.5833 23.8105 97.2867 23.6039 96.9C23.3972 96.5067 23.2939 96.04 23.2939 95.5C23.2939 94.96 23.3972 94.4967 23.6039 94.11C23.8105 93.7167 24.0972 93.4167 24.4639 93.21C24.8305 93.0033 25.2472 92.9 25.7139 92.9ZM25.7139 93.59C25.3739 93.59 25.0839 93.6667 24.8439 93.82C24.6039 93.9733 24.4172 94.1933 24.2839 94.48C24.1572 94.76 24.0939 95.1 24.0939 95.5C24.0939 95.8933 24.1572 96.2333 24.2839 96.52C24.4172 96.8067 24.6039 97.0267 24.8439 97.18C25.0839 97.3333 25.3739 97.41 25.7139 97.41C26.0539 97.41 26.3439 97.3333 26.5839 97.18C26.8239 97.0267 27.0072 96.8067 27.1339 96.52C27.2672 96.2333 27.3339 95.8933 27.3339 95.5C27.3339 95.1 27.2672 94.76 27.1339 94.48C27.0072 94.1933 26.8239 93.9733 26.5839 93.82C26.3439 93.6667 26.0539 93.59 25.7139 93.59ZM29.64 98V93H30.34L30.41 94.12L30.28 94.01C30.3866 93.7433 30.53 93.53 30.71 93.37C30.89 93.2033 31.0966 93.0833 31.33 93.01C31.57 92.9367 31.8166 92.9 32.07 92.9C32.43 92.9 32.7566 92.97 33.05 93.11C33.3433 93.2433 33.5766 93.45 33.75 93.73C33.93 94.01 34.02 94.3667 34.02 94.8V98H33.22V95.08C33.22 94.5267 33.1 94.1433 32.86 93.93C32.6266 93.71 32.3366 93.6 31.99 93.6C31.75 93.6 31.51 93.6567 31.27 93.77C31.03 93.8833 30.83 94.0667 30.67 94.32C30.5166 94.5733 30.44 94.9133 30.44 95.34V98H29.64ZM36.943 91.58V96.62C36.943 96.8667 37.013 97.05 37.153 97.17C37.293 97.29 37.473 97.35 37.693 97.35C37.8863 97.35 38.053 97.3167 38.193 97.25C38.333 97.1833 38.4597 97.0933 38.573 96.98L38.853 97.65C38.6997 97.79 38.5163 97.9 38.303 97.98C38.0963 98.06 37.8563 98.1 37.583 98.1C37.3297 98.1 37.093 98.0567 36.873 97.97C36.653 97.8767 36.4763 97.7333 36.343 97.54C36.2163 97.34 36.1497 97.08 36.143 96.76V91.8L36.943 91.58ZM38.763 93V93.69H35.143V93H38.763ZM42.0425 98.1C41.5691 98.1 41.1458 97.9967 40.7725 97.79C40.4058 97.5833 40.1191 97.2867 39.9125 96.9C39.7058 96.5067 39.6025 96.04 39.6025 95.5C39.6025 94.96 39.7058 94.4967 39.9125 94.11C40.1191 93.7167 40.4025 93.4167 40.7625 93.21C41.1225 93.0033 41.5325 92.9 41.9925 92.9C42.4591 92.9 42.8558 93 43.1825 93.2C43.5158 93.4 43.7691 93.6733 43.9425 94.02C44.1158 94.36 44.2025 94.7433 44.2025 95.17C44.2025 95.2833 44.1991 95.3867 44.1925 95.48C44.1858 95.5733 44.1758 95.6567 44.1625 95.73H40.1225V95.02H43.8125L43.4025 95.1C43.4025 94.62 43.2691 94.25 43.0025 93.99C42.7425 93.73 42.3991 93.6 41.9725 93.6C41.6458 93.6 41.3625 93.6767 41.1225 93.83C40.8891 93.9767 40.7058 94.1933 40.5725 94.48C40.4458 94.76 40.3825 95.1 40.3825 95.5C40.3825 95.8933 40.4491 96.2333 40.5825 96.52C40.7158 96.8067 40.9025 97.0267 41.1425 97.18C41.3891 97.3267 41.6825 97.4 42.0225 97.4C42.3891 97.4 42.6858 97.33 42.9125 97.19C43.1458 97.05 43.3325 96.86 43.4725 96.62L44.1025 96.99C43.9758 97.2167 43.8125 97.4133 43.6125 97.58C43.4191 97.7467 43.1891 97.8767 42.9225 97.97C42.6625 98.0567 42.3691 98.1 42.0425 98.1ZM45.7239 98V93H46.3739L46.4839 93.82C46.6239 93.5133 46.8273 93.2833 47.0939 93.13C47.3673 92.9767 47.6973 92.9 48.0839 92.9C48.1706 92.9 48.2639 92.9067 48.3639 92.92C48.4706 92.9333 48.5606 92.96 48.6339 93L48.4939 93.73C48.4206 93.7033 48.3406 93.6833 48.2539 93.67C48.1673 93.6567 48.0439 93.65 47.8839 93.65C47.6773 93.65 47.4673 93.71 47.2539 93.83C47.0473 93.95 46.8739 94.1333 46.7339 94.38C46.5939 94.62 46.5239 94.9267 46.5239 95.3V98H45.7239ZM49.806 98V93H50.506L50.576 94.12L50.446 94.01C50.5526 93.7433 50.696 93.53 50.876 93.37C51.056 93.2033 51.2626 93.0833 51.496 93.01C51.736 92.9367 51.9826 92.9 52.236 92.9C52.596 92.9 52.9226 92.97 53.216 93.11C53.5093 93.2433 53.7426 93.45 53.916 93.73C54.096 94.01 54.186 94.3667 54.186 94.8V98H53.386V95.08C53.386 94.5267 53.266 94.1433 53.026 93.93C52.7926 93.71 52.5026 93.6 52.156 93.6C51.916 93.6 51.676 93.6567 51.436 93.77C51.196 93.8833 50.996 94.0667 50.836 94.32C50.6826 94.5733 50.606 94.9133 50.606 95.34V98H49.806ZM58.0874 98.1C57.614 98.1 57.1907 97.9967 56.8174 97.79C56.4507 97.5833 56.164 97.2867 55.9574 96.9C55.7507 96.5067 55.6474 96.04 55.6474 95.5C55.6474 94.96 55.7507 94.4967 55.9574 94.11C56.164 93.7167 56.4474 93.4167 56.8074 93.21C57.1674 93.0033 57.5774 92.9 58.0374 92.9C58.504 92.9 58.9007 93 59.2274 93.2C59.5607 93.4 59.814 93.6733 59.9874 94.02C60.1607 94.36 60.2474 94.7433 60.2474 95.17C60.2474 95.2833 60.244 95.3867 60.2374 95.48C60.2307 95.5733 60.2207 95.6567 60.2074 95.73H56.1674V95.02H59.8574L59.4474 95.1C59.4474 94.62 59.314 94.25 59.0474 93.99C58.7874 93.73 58.444 93.6 58.0174 93.6C57.6907 93.6 57.4074 93.6767 57.1674 93.83C56.934 93.9767 56.7507 94.1933 56.6174 94.48C56.4907 94.76 56.4274 95.1 56.4274 95.5C56.4274 95.8933 56.494 96.2333 56.6274 96.52C56.7607 96.8067 56.9474 97.0267 57.1874 97.18C57.434 97.3267 57.7274 97.4 58.0674 97.4C58.434 97.4 58.7307 97.33 58.9574 97.19C59.1907 97.05 59.3774 96.86 59.5174 96.62L60.1474 96.99C60.0207 97.2167 59.8574 97.4133 59.6574 97.58C59.464 97.7467 59.234 97.8767 58.9674 97.97C58.7074 98.0567 58.414 98.1 58.0874 98.1ZM62.8024 91.58V96.62C62.8024 96.8667 62.8724 97.05 63.0124 97.17C63.1524 97.29 63.3324 97.35 63.5524 97.35C63.7457 97.35 63.9124 97.3167 64.0524 97.25C64.1924 97.1833 64.319 97.0933 64.4324 96.98L64.7124 97.65C64.559 97.79 64.3757 97.9 64.1624 97.98C63.9557 98.06 63.7157 98.1 63.4424 98.1C63.189 98.1 62.9524 98.0567 62.7324 97.97C62.5124 97.8767 62.3357 97.7333 62.2024 97.54C62.0757 97.34 62.009 97.08 62.0024 96.76V91.8L62.8024 91.58ZM64.6224 93V93.69H61.0024V93H64.6224Z" fill="#565656"/>
<g filter="url(#filter0_d_92_4)">
<circle cx="36" cy="34" r="19" fill="#C9D6E9" fill-opacity="0.87"/>
<path d="M30.1697 37.7493C30.1697 37.4661 30.2823 37.1944 30.4825 36.9942C30.6828 36.7939 30.9545 36.6815 31.2376 36.6815C31.4254 36.6823 31.6096 36.7327 31.7716 36.8273C31.9346 36.9214 32.0698 37.0569 32.1635 37.2201C32.2573 37.3833 32.3064 37.5682 32.3055 37.7564C32.3055 37.8065 32.302 37.8564 32.2949 37.9059C32.2468 38.2348 32.0498 38.5229 31.7609 38.6873C31.5989 38.782 31.4146 38.8319 31.2269 38.8315C30.9432 38.8286 30.6721 38.7129 30.4736 38.5099C30.2753 38.3069 30.1659 38.0332 30.1698 37.7493L30.1697 37.7493ZM43.9423 30.5122H39.7951C39.6764 30.784 39.5233 31.0395 39.3394 31.2722C38.5699 32.258 37.3386 32.7664 36.0979 32.6106C34.857 32.4548 33.7896 31.6577 33.2878 30.5122H29.1462C28.8426 30.5127 28.5516 30.6333 28.3369 30.8479C28.1221 31.0623 28.001 31.353 28 31.6566V32.6907H45.0869V31.6566C45.0865 31.3533 44.9658 31.0624 44.7512 30.8479C44.5367 30.6335 44.2459 30.5127 43.9425 30.5122L43.9423 30.5122ZM32.8307 37.9878C32.8307 38.0394 32.8129 38.0928 32.8004 38.1444V38.1443C32.7995 38.1538 32.7995 38.1634 32.8004 38.1728C32.7833 38.2332 32.7631 38.2926 32.7399 38.3508C32.7341 38.3659 32.7276 38.3808 32.7203 38.3953C32.7008 38.4398 32.6794 38.4843 32.6545 38.5287L32.635 38.5661C32.6029 38.6195 32.5691 38.6694 32.5335 38.7174L32.5069 38.7495C32.4891 38.7726 32.473 38.7958 32.4535 38.8171H32.4533C32.499 38.8199 32.5447 38.8199 32.5903 38.8171C32.9745 38.8171 33.3293 38.6121 33.5213 38.2796C33.7135 37.9469 33.7135 37.5372 33.5213 37.2045C33.3293 36.872 32.9745 36.667 32.5903 36.667C32.5447 36.6643 32.499 36.6643 32.4533 36.667C32.4711 36.6865 32.4872 36.708 32.5032 36.7293L32.5353 36.7685H32.5351C32.5705 36.8158 32.6032 36.8653 32.6331 36.9162C32.6331 36.9304 32.649 36.9448 32.6561 36.959C32.6799 37.0017 32.7012 37.0445 32.7202 37.0871C32.7202 37.1031 32.7344 37.1174 32.7397 37.1334H32.7399C32.7636 37.1914 32.7838 37.2508 32.8004 37.3113C32.7995 37.322 32.7995 37.3328 32.8004 37.3434C32.8132 37.3944 32.8233 37.4461 32.8307 37.4983C32.8315 37.5154 32.8315 37.5327 32.8307 37.5498C32.8472 37.675 32.8472 37.8019 32.8307 37.9271C32.8318 37.9473 32.8318 37.9675 32.8307 37.9878L32.8307 37.9878ZM28 34.3587H45.0869V33.2232H28V34.3587ZM28 34.8927H45.0869V40.2216C45.0879 40.5257 44.9677 40.8177 44.753 41.0331C44.5383 41.2484 44.2466 41.3696 43.9424 41.3696H29.1462C28.842 41.3696 28.5501 41.2486 28.3352 41.0332C28.1201 40.8178 27.9995 40.5258 28 40.2216L28 34.8927ZM36.0381 37.0784C36.0381 37.2257 36.1576 37.3454 36.3051 37.3454H43.1859C43.3334 37.3454 43.4529 37.2257 43.4529 37.0784C43.4529 36.9309 43.3334 36.8114 43.1859 36.8114H36.3051C36.1576 36.8114 36.0381 36.9309 36.0381 37.0784ZM36.0381 38.4204V38.4203C36.0381 38.5678 36.1576 38.6873 36.3051 38.6873H43.1859C43.3334 38.6873 43.4529 38.5678 43.4529 38.4203C43.4529 38.2729 43.3334 38.1534 43.1859 38.1534H36.3051C36.1576 38.1534 36.0381 38.2729 36.0381 38.4203V38.4204ZM29.6306 37.7495V37.7494C29.6306 38.1742 29.7994 38.5816 30.0997 38.882C30.4002 39.1825 30.8076 39.3513 31.2324 39.3513C31.4682 39.3547 31.7017 39.3056 31.916 39.2071C32.1252 39.3061 32.3537 39.3577 32.5852 39.3584C33.16 39.3584 33.6913 39.0517 33.9786 38.5539C34.2661 38.0561 34.2661 37.4427 33.9786 36.9448C33.6912 36.447 33.16 36.1404 32.5852 36.1404C32.3531 36.1411 32.1241 36.1927 31.9142 36.2916C31.705 36.1926 31.4765 36.141 31.245 36.1404C30.8177 36.1385 30.4073 36.3073 30.1051 36.6095C29.803 36.9116 29.634 37.322 29.636 37.7494L29.6306 37.7495ZM39.5587 29.0884C39.5331 30.1479 38.9529 31.116 38.0309 31.6384C37.109 32.1608 35.9802 32.1608 35.0582 31.6384C34.1363 31.1161 33.5561 30.1479 33.5304 29.0884C33.5106 28.2762 33.8194 27.4905 34.3869 26.9091C34.9543 26.3278 35.7322 26 36.5447 26C37.357 26 38.1349 26.3278 38.7023 26.9091C39.2698 27.4905 39.5786 28.2762 39.5588 29.0884H39.5587ZM37.9426 28.2927H37.9427C37.8928 28.2423 37.8248 28.2139 37.754 28.2139C37.6831 28.2139 37.6152 28.2423 37.5654 28.2927L36.1876 29.6669L35.5238 29.003V29.0029C35.4192 28.8987 35.2498 28.8991 35.1456 29.0039C35.0414 29.1085 35.0418 29.2778 35.1465 29.382L35.9991 30.2328C36.0485 30.2838 36.1168 30.3121 36.1877 30.3111C36.2586 30.3115 36.3266 30.2832 36.3764 30.2328L37.9427 28.6665C38.0459 28.5619 38.0459 28.3938 37.9427 28.2892L37.9426 28.2927Z" fill="#4C6487"/>
</g>
<defs>
<filter id="filter0_d_92_4" x="0" y="0" width="72" height="72" filterUnits="userSpaceOnUse" color-interpolation-filters="sRGB">
<feFlood flood-opacity="0" result="BackgroundImageFix"/>
<feColorMatrix in="SourceAlpha" type="matrix" values="0 0 0 0 0 0 0 0 0 0 0 0 0 0 0 0 0 0 127 0" result="hardAlpha"/>
<feOffset dy="2"/>
<feGaussianBlur stdDeviation="8.5"/>
<feComposite in2="hardAlpha" operator="out"/>
<feColorMatrix type="matrix" values="0 0 0 0 0.175 0 0 0 0 0.175 0 0 0 0 0.175 0 0 0 0.12 0"/>
<feBlend mode="normal" in2="BackgroundImageFix" result="effect1_dropShadow_92_4"/>
<feBlend mode="normal" in="SourceGraphic" in2="effect1_dropShadow_92_4" result="shape"/>
</filter>
</defs>
</svg>
